<?xml version="1.0" encoding="UTF-8" standalone="no"?>
<svg
   id="Layer_1"
   viewBox="0 0 4000 2000"
   version="1.1"
   xmlns="http://www.w3.org/2000/svg"
   xmlns:svg="http://www.w3.org/2000/svg">
  <defs
     id="defs1">
    <style
       id="style1">
      .cls-1 {
        fill: none;
      }

      .cls-2 {
        fill: #3a51c1;
      }

      .cls-3 {
        clip-path: url(#clippath);
      }
    </style>
    <clipPath
       id="clippath">
      <rect
         class="cls-1"
         y="0"
         width="4000"
         height="2000"
         id="rect1" />
    </clipPath>
  </defs>
  <g
     id="layer1">
    <path
       style="fill:none;stroke:#000000;stroke-width:10;stroke-dasharray:none;stroke-opacity:1"
       d="m 4181.8182,168.18182 c 0,0 -426.7631,87.2528 -590.9091,218.18182 C 3428.283,516.08029 3474.6315,806.28022 3268.1818,831.81818 3075.5861,855.6424 2980.7476,571.31835 2795.4546,513.63636 2633.2141,463.13063 2408.0227,695.81864 2350,600 c -66.088,-109.13762 173.0859,-231.25101 268.1818,-372.72727 76.5816,-113.93211 55.9884,-265.577585 190.9091,-290.9091 223.211,-41.90811 387.2143,281.31336 613.6364,263.63637 207.9195,-16.23248 463.6363,-431.81818 463.6363,-431.81818"
       id="path16" />
    <path
       style="fill:none;stroke:#000000;stroke-width:10;stroke-dasharray:none;stroke-opacity:1"
       d="m 4181.8182,281.81819 c 0,0 -367.6722,159.98007 -531.8182,290.90909 -162.6261,129.71665 -120.823,479.00752 -327.2727,504.54552 -192.5957,23.8242 -441.9798,-346.86353 -627.2728,-404.54552 -162.2405,-50.50573 -582.5466,359.24842 -677.2727,218.18182 -95.0306,-141.52014 223.5047,-361.5616 377.2727,-613.63637 166.82,-273.4710048 127.4551,-519.94721 250,-581.81818 155.0292,-78.27175 546.3052,376.767896 772.7273,359.090906 207.9195,-16.23248 313.6363,-354.545446 313.6363,-354.545446"
       id="path17" />
    <path
       style="fill:none;stroke:#000000;stroke-width:10;stroke-dasharray:none;stroke-opacity:1"
       d="m 4218.1818,436.36364 c 0,0 -244.9449,105.43461 -409.0909,236.36363 -162.6261,129.71665 -101.8865,531.56073 -440.909,604.54553 -363.0134,78.1497 -514.7071,-401.40899 -700.0001,-459.09098 -162.2405,-50.50573 -523.7018,625.78348 -800,199.99998 -182.4981,-281.23491 194.9969,-474.55336 295.4545,-640.90908 122.1479,-202.27444 127.4551,-610.85629 250,-672.72726"
       id="path18" />
    <path
       style="display:inline;fill:none;stroke:#000000;stroke-width:10;stroke-dasharray:none;stroke-opacity:1"
       d="m 1540.9091,2272.7273 c 0,0 -104.456,-438.2075 40.9091,-559.0909 81.5564,-67.8211 212.2292,9.5638 318.1818,4.5454 97.4388,-4.6151 219.1596,-97.9061 290.9091,-31.8182 166.1115,153.004 -218.1818,668.1819 -218.1818,668.1819"
       id="path19" />
    <path
       style="display:inline;fill:none;stroke:#000000;stroke-width:10;stroke-dasharray:none;stroke-opacity:1"
       d="m 2195.4546,2350 c 0,0 256.3314,-606.9426 109.0908,-772.7273 -161.1835,-181.4836 -262.4347,30.9227 -504.5454,13.6364 -158.3414,-11.3054 -311.7607,-182.7536 -336.3636,-350 C 1434.9483,1045.8926 1762.7359,452.32392 1450,427.27273 1064.4461,396.38858 1446.4165,844.8106 1295.4545,1100 1205.0413,1252.8365 885.70506,1141.1813 900,1318.1818 c 14.29286,176.9747 370.5095,50.67 459.0909,204.5455 96.1088,166.9516 4.5455,727.2727 -9.0909,772.7273"
       id="path20" />
    <path
       style="display:inline;fill:none;stroke:#000000;stroke-width:10;stroke-dasharray:none;stroke-opacity:1"
       d="m 2345.4545,2354.5454 c 0,0 241.8659,-699.1341 40.9092,-949.9999 -171.6644,-214.2986 -511.6756,137.7839 -663.6364,-90.9091 C 1498.7271,976.52802 1841.0837,545.78105 1650,345.45454 1498.7948,186.93555 1225.0105,244.29878 1104.5455,427.27272 c -96.4325,146.47104 164.127,386.78019 100,550.00004 C 1122.2091,1186.8404 639.32166,1043.2732 650,1313.6364 c 10.58306,267.9507 462.5441,154.0155 577.2728,349.9999 118.2372,201.9777 -18.1819,663.6364 -18.1819,663.6364"
       id="path21" />
    <path
       style="fill:none;stroke:#000000;stroke-width:10;stroke-dasharray:none;stroke-opacity:1"
       d="m 4213.6364,886.36364 c 0,0 -314.601,51.14717 -440.9092,159.09096 -147.2768,125.8637 -52.6786,490.4433 -386.3636,545.4545 -366.7309,60.4591 -434.9047,-524.0704 -668.1817,-413.6363 -357.3841,169.1868 40.909,1149.9999 40.909,1149.9999"
       id="path22" />
    <path
       style="fill:none;stroke:#000000;stroke-width:10;stroke-dasharray:none;stroke-opacity:1"
       d="m 4213.6364,1027.2727 c 0,0 -209.9611,39.0241 -336.3636,154.5455 -136.9107,125.1251 -141.7791,530.4897 -431.8183,559.0909 -453.5689,44.7271 -500.7109,-437.5458 -672.7272,-313.6364 -125.4954,90.3988 -36.2817,241.853 -18.1819,395.4545 17.352,147.2572 63.6364,413.6365 63.6364,413.6365"
       id="path23" />
    <path
       style="fill:none;stroke:#000000;stroke-width:10;stroke-dasharray:none;stroke-opacity:1"
       d="m 4200,1263.6363 c 0,0 -214.0829,110.9172 -331.8182,218.1818 -98.6636,89.8889 -45.7872,365.2506 -322.7273,422.7274 -428.4335,88.9181 -421.3958,-261.5434 -586.3636,-145.4546 -159.863,112.4965 22.7273,545.4545 22.7273,545.4545"
       id="path24" />
    <path
       style="fill:none;stroke:#000000;stroke-width:10;stroke-dasharray:none;stroke-opacity:1"
       d="m 777.27273,2436.3636 c 0,0 267.19617,-559.6375 213.63634,-672.7272 -119.46245,-252.2406 -609.04945,-159.9148 -627.27271,-418.1819 -23.84282,-337.9097 593.97553,-232.6333 550,-549.99995 C 885.31966,591.09593 692.98148,565.61482 440.90909,531.81818 179.572,496.77937 -277.27273,136.36364 -277.27273,136.36364"
       id="path25" />
    <path
       style="fill:none;stroke:#000000;stroke-width:10;stroke-dasharray:none;stroke-opacity:1"
       d="m 568.18182,2450 c 0,0 302.15535,-419.287 254.54543,-640.909 -41.73847,-194.2907 -570.74479,8.4376 -604.54544,-400.0001 C 179.37078,940.10915 737.8891,1038.956 704.54545,809.09091 687.3833,690.77816 515.69674,681.20004 304.54545,645.45454 -1.6634941,593.61687 -250,286.36364 -250,286.36364"
       id="path26" />
    <path
       style="fill:none;stroke:#000000;stroke-width:10;stroke-dasharray:none;stroke-opacity:1"
       d="m 390.9091,2422.7273 c 0,0 303.89715,-314.0671 240.90906,-531.8181 C 590.07969,1746.6185 88.346096,1922.074 40.909083,1427.2727 -4.0003678,958.83562 439.11795,1033.7351 413.63636,840.90909 401.52326,749.24604 356.60583,763.01822 145.45454,727.27272 -160.75441,675.43505 -259.09091,490.9091 -259.09091,490.9091"
       id="path27" />
    <path
       style="fill:none;stroke:#000000;stroke-width:10;stroke-dasharray:none;stroke-opacity:1"
       d="m -204.54545,-59.090909 c 0,0 568.73507,537.523469 936.36363,499.999999 235.26748,-24.01351 118.96598,-423.656837 545.45452,-427.272726 445.8097,-3.7796987 457.1979,436.434886 695.4545,345.454546 251.5705,-96.06438 186.3637,-636.36364 186.3637,-636.36364"
       id="path28" />
    <path
       style="fill:none;stroke:#000000;stroke-width:10;stroke-dasharray:none;stroke-opacity:1"
       d="m 200,-240.90909 c 0,0 114.18962,587.52347 481.81818,550 235.26748,-24.01351 178.05689,-541.83866 604.54542,-545.45455 445.8097,-3.77969 419.6622,524.21315 659.0908,436.36364 137.9342,-50.60983 40.9092,-481.81818 40.9092,-481.81818"
       id="path29" />
  </g>
</svg>
