<svg width="1200" height="720" viewBox="0 0 1200 720" fill="none" xmlns="http://www.w3.org/2000/svg">
  <style>
    :root {
      --project-background: #f7f1e8;
      --project-surface: #fffdf8;
      --project-border: #d8ccc0;
      --project-border-soft: #e7ddd0;
      --project-panel: #f0e7d9;
      --project-panel-strong: #e6dac7;
      --project-accent: #0f766e;
      --project-accent-soft: #d9f3ef;
      --project-text: #1f2933;
      --project-muted: #52606d;
      --project-ink: #21313c;
    }
  </style>
  <rect width="1200" height="720" rx="36" fill="var(--project-background)"/>
  <rect x="72" y="88" width="1056" height="544" rx="30" fill="var(--project-surface)" stroke="var(--project-border)"/>

  <rect x="112" y="128" width="330" height="464" rx="28" fill="var(--project-panel)"/>
  <rect x="144" y="166" width="138" height="28" rx="14" fill="var(--project-accent)"/>
  <rect x="144" y="222" width="266" height="86" rx="22" fill="var(--project-surface)" stroke="var(--project-border)"/>
  <rect x="168" y="246" width="112" height="14" rx="7" fill="var(--project-text)"/>
  <rect x="168" y="274" width="196" height="12" rx="6" fill="var(--project-border)"/>
  <rect x="144" y="332" width="232" height="74" rx="22" fill="var(--project-accent-soft)"/>
  <rect x="168" y="356" width="92" height="14" rx="7" fill="var(--project-accent)"/>
  <rect x="168" y="384" width="164" height="12" rx="6" fill="#72b8ad"/>
  <rect x="144" y="430" width="252" height="126" rx="24" fill="var(--project-surface)" stroke="var(--project-border)"/>
  <circle cx="194" cy="484" r="20" fill="var(--project-panel-strong)"/>
  <path d="M194 472L201.5 485H186.5L194 472Z" fill="var(--project-accent)"/>
  <rect x="228" y="472" width="132" height="12" rx="6" fill="var(--project-text)"/>
  <rect x="228" y="496" width="116" height="10" rx="5" fill="var(--project-border)"/>
  <rect x="228" y="522" width="94" height="10" rx="5" fill="var(--project-border-soft)"/>

  <path d="M470 236C536 236 554 292 620 292" stroke="var(--project-accent)" stroke-width="10" stroke-linecap="round"/>
  <path d="M470 392C540 392 554 364 620 364" stroke="var(--project-accent)" stroke-width="10" stroke-linecap="round"/>
  <path d="M470 514C534 514 560 470 620 470" stroke="var(--project-accent)" stroke-width="10" stroke-linecap="round"/>

  <rect x="620" y="128" width="468" height="136" rx="28" fill="var(--project-surface)" stroke="var(--project-border)"/>
  <rect x="656" y="166" width="106" height="22" rx="11" fill="var(--project-accent)"/>
  <rect x="656" y="210" width="186" height="16" rx="8" fill="var(--project-text)"/>
  <rect x="870" y="210" width="168" height="16" rx="8" fill="var(--project-border)"/>
  <rect x="656" y="238" width="382" height="10" rx="5" fill="var(--project-border-soft)"/>

  <rect x="620" y="292" width="220" height="144" rx="28" fill="var(--project-panel)"/>
  <rect x="656" y="328" width="80" height="20" rx="10" fill="var(--project-text)"/>
  <rect x="656" y="366" width="148" height="12" rx="6" fill="var(--project-border)"/>
  <rect x="656" y="390" width="122" height="12" rx="6" fill="var(--project-border-soft)"/>
  <rect x="656" y="414" width="108" height="12" rx="6" fill="var(--project-border-soft)"/>

  <rect x="868" y="292" width="220" height="144" rx="28" fill="var(--project-accent)"/>
  <rect x="904" y="328" width="66" height="20" rx="10" fill="#d9f3ef"/>
  <rect x="904" y="366" width="132" height="12" rx="6" fill="#9cd9cf"/>
  <rect x="904" y="390" width="108" height="12" rx="6" fill="#9cd9cf"/>
  <rect x="904" y="414" width="154" height="12" rx="6" fill="#d9f3ef"/>

  <rect x="620" y="464" width="468" height="128" rx="28" fill="var(--project-surface)" stroke="var(--project-border)"/>
  <rect x="656" y="500" width="124" height="20" rx="10" fill="var(--project-text)"/>
  <rect x="656" y="538" width="158" height="12" rx="6" fill="var(--project-border)"/>
  <rect x="832" y="536" width="216" height="16" rx="8" fill="var(--project-panel-strong)"/>
  <circle cx="872" cy="544" r="12" fill="var(--project-accent)"/>
  <circle cx="918" cy="544" r="12" fill="var(--project-accent)"/>
  <circle cx="964" cy="544" r="12" fill="var(--project-accent)"/>

  <text x="112" y="640" fill="var(--project-text)" font-family="Inter, system-ui, -apple-system, Segoe UI, Roboto, Helvetica Neue, Arial, sans-serif" font-size="34" font-weight="700">How I use AI today</text>
  <text x="112" y="678" fill="var(--project-muted)" font-family="Inter, system-ui, -apple-system, Segoe UI, Roboto, Helvetica Neue, Arial, sans-serif" font-size="24">Research, debugging, writing, and repeatable front-end workflow support.</text>
</svg>
