<svg width="1200" height="720" viewBox="0 0 1200 720" fill="none" xmlns="http://www.w3.org/2000/svg">
  <style>
    :root {
      --project-background: #f7f1e8;
      --project-surface: #fffdf8;
      --project-border: #d8ccc0;
      --project-border-soft: #e4d9cb;
      --project-panel: #f0e7d9;
      --project-accent: #0f766e;
      --project-text: #1f2933;
      --project-muted: #52606d;
    }
  </style>
  <rect width="1200" height="720" rx="36" fill="var(--project-background)"/>
  <rect x="72" y="88" width="400" height="544" rx="28" fill="var(--project-surface)" stroke="var(--project-border)"/>
  <circle cx="272" cy="236" r="88" fill="var(--project-panel)"/>
  <path d="M272 188L294 226H250L272 188Z" fill="var(--project-accent)"/>
  <rect x="152" y="362" width="240" height="22" rx="11" fill="var(--project-border)"/>
  <rect x="152" y="404" width="200" height="16" rx="8" fill="var(--project-border-soft)"/>
  <rect x="152" y="434" width="220" height="16" rx="8" fill="var(--project-border-soft)"/>
  <rect x="520" y="120" width="612" height="120" rx="28" fill="var(--project-surface)" stroke="var(--project-border)"/>
  <rect x="560" y="168" width="168" height="24" rx="12" fill="var(--project-accent)"/>
  <rect x="760" y="170" width="120" height="20" rx="10" fill="var(--project-border)"/>
  <rect x="906" y="170" width="160" height="20" rx="10" fill="var(--project-border)"/>
  <rect x="520" y="286" width="292" height="346" rx="28" fill="var(--project-surface)" stroke="var(--project-border)"/>
  <rect x="840" y="286" width="292" height="346" rx="28" fill="var(--project-surface)" stroke="var(--project-border)"/>
  <text x="560" y="574" fill="var(--project-text)" font-family="Inter, system-ui, -apple-system, Segoe UI, Roboto, Helvetica Neue, Arial, sans-serif" font-size="34" font-weight="700">Performance + accessibility</text>
  <text x="560" y="614" fill="var(--project-muted)" font-family="Inter, system-ui, -apple-system, Segoe UI, Roboto, Helvetica Neue, Arial, sans-serif" font-size="24">Cleaner interaction, smaller front-end cost, better defaults.</text>
</svg>
