<?xml version="1.0" encoding="UTF-8" standalone="no"?>
<!-- Created with Inkscape (http://www.inkscape.org/) -->

<svg
   width="54.423622"
   height="19.138786"
   viewBox="0 0 59.969 21.088892"
   version="1.1"
   id="svg1"
   xml:space="preserve"
   xmlns="http://www.w3.org/2000/svg"
   xmlns:svg="http://www.w3.org/2000/svg"><defs
     id="defs1" /><g
     id="layer3"
     transform="translate(-1.7097529,-0.93034684)"><path
       style="fill:none;fill-opacity:1;stroke:#000000;stroke-width:0.5;stroke-dasharray:none;stroke-opacity:1"
       d="m 16.183336,5.4335317 c 0,0 0.379518,-3.0649089 -0.760677,-3.8033853 C 13.758442,0.55227467 5.9759693,2.945982 5.9638042,4.7059276 5.9459441,7.2897877 17.467546,8.4584601 16.447919,13.503324 16.061177,15.416828 10.540121,17.794736 7.6174497,17.405927 0.11516523,16.407883 2.8218772,12.775719 2.8218772,12.775719"
       id="path1" /><path
       style="fill:none;fill-opacity:1;stroke:#000000;stroke-width:0.499999;stroke-dasharray:none;stroke-opacity:1"
       d="m 16.209462,11.584217 c 0,0 7.341163,-2.0943507 8.49823,-2.4795909 1.157067,-0.38524 2.48179,-0.211254 -0.165364,3.1419269 -2.647154,3.353181 -3.638021,6.713802 -3.638021,6.713802"
       id="path2" /><path
       style="fill:none;fill-opacity:1;stroke:#000000;stroke-width:0.499999;stroke-dasharray:none;stroke-opacity:1"
       d="m 22.591026,13.635615 c 0,0 1.715688,0.149437 5.32474,-0.463021 2.465107,-0.41833 5.556249,-0.661458 5.556249,-0.661458"
       id="path4" /><path
       style="fill:none;fill-opacity:1;stroke:#000000;stroke-width:0.499999;stroke-dasharray:none;stroke-opacity:1"
       d="m 28.312641,10.295251 c 0,0 -0.497244,1.485596 -0.429948,2.844271 0.06253,1.262396 -0.06615,2.811197 -0.06615,2.811197"
       id="path5" /><path
       style="fill:none;fill-opacity:1;stroke:#000000;stroke-width:0.499999;stroke-dasharray:none;stroke-opacity:1"
       d="m 20.928612,10.229982 c 0,0 -0.354072,1.438588 -0.558732,2.450027 -0.155789,0.769912 -0.364679,3.40388 -0.364679,3.40388"
       id="path6" /><path
       style="fill:none;fill-opacity:1;stroke:#000000;stroke-width:0.499999;stroke-dasharray:none;stroke-opacity:1"
       d="m 16.381774,13.503324 1.728559,-0.165365"
       id="path7" /><path
       style="fill:none;fill-opacity:1;stroke:#000000;stroke-width:0.499999;stroke-dasharray:none;stroke-opacity:1"
       d="m 13.305992,16.215303 c 0,0 1.250808,-0.279094 1.885157,-0.363802 0.43832,-0.05853 1.934011,-0.09922 1.934011,-0.09922"
       id="path8" /><path
       style="fill:none;fill-opacity:1;stroke:#000000;stroke-width:0.499999;stroke-dasharray:none;stroke-opacity:1"
       d="m 35.522536,6.3926467 c 0,0 0.862167,2.6179224 1.091406,5.1593753 0.200314,2.220771 0.496094,4.795572 0.496094,4.795572"
       id="path9" /><path
       style="display:inline;fill:none;fill-opacity:1;stroke:#000000;stroke-width:0.499999;stroke-dasharray:none;stroke-opacity:1"
       d="m 27.419672,4.5736359 c 0,0 -0.160653,1.27516 1.35599,1.3229167 4.232186,0.1332651 10.206785,-0.9804515 16.10651,-1.190625 5.321546,-0.1895762 16.33802,-0.1653646 16.33802,-0.1653646"
       id="path10" /><path
       style="display:inline;fill:none;fill-opacity:1;stroke:#000000;stroke-width:0.499999;stroke-dasharray:none;stroke-opacity:1"
       d="m 38.648413,11.092325 c 0,0 0.211971,1.606442 0.264584,2.414323 0.106855,1.640774 0.132291,2.844271 0.132291,2.844271"
       id="path11" /><path
       style="display:inline;fill:none;fill-opacity:1;stroke:#000000;stroke-width:0.499999;stroke-dasharray:none;stroke-opacity:1"
       d="m 40.944143,11.367283 c 0,0 0.522619,3.450476 0.56224,5.787761 0.04121,2.431277 -0.229357,3.485604 -0.297656,4.729427"
       id="path12" /><path
       style="display:inline;fill:none;fill-opacity:1;stroke:#000000;stroke-width:0.499999;stroke-dasharray:none;stroke-opacity:1"
       d="m 40.476421,11.437441 c 0,0 3.978344,-1.340496 3.451454,1.372492 -0.298487,1.536934 -1.206301,2.103878 -3.280413,4.257005"
       id="path16" /><path
       style="fill:none;fill-opacity:1;stroke:#000000;stroke-width:0.499999;stroke-dasharray:none;stroke-opacity:1"
       d="m 44.552803,11.784532 c 0,0 0.794669,-0.179725 1.314435,-0.295591 0.478194,-0.106598 1.201735,-0.276927 1.651648,-0.336394 0.396136,-0.05236 1.849018,-0.291242 1.849018,-0.291242"
       id="path13" /><path
       style="fill:none;fill-opacity:1;stroke:#000000;stroke-width:0.499999;stroke-dasharray:none;stroke-opacity:1"
       d="m 46.857145,9.7104873 c 0,0 -0.01001,2.2150977 -4e-6,3.3298167 0.0095,1.062016 4e-6,2.149739 4e-6,2.149739"
       id="path14" /><path
       style="display:inline;fill:none;fill-opacity:1;stroke:#000000;stroke-width:0.499999;stroke-dasharray:none;stroke-opacity:1"
       d="m 52.981998,10.999469 c 0,0 -1.639279,0.15228 -2.546614,0.926041 -1.467357,1.251338 -1.030868,3.110582 -0.06615,3.638022 0.919554,0.502748 2.350062,0.180753 3.012961,-0.875946 0.791024,-1.260938 -0.565564,-2.960513 -0.565564,-2.960513"
       id="path15" /><path
       style="display:inline;fill:none;fill-opacity:1;stroke:#000000;stroke-width:0.499999;stroke-dasharray:none;stroke-opacity:1"
       d="m 54.695339,10.435302 c 0,0 0.118713,0.821104 0.163704,1.611005 0.03595,0.631123 0.06216,1.059556 0.08054,1.655354 0.02607,0.844988 0.03639,1.759014 0.03639,1.759014"
       id="path17" /><path
       style="display:inline;fill:none;fill-opacity:1;stroke:#000000;stroke-width:0.499999;stroke-dasharray:none;stroke-opacity:1"
       d="m 54.835656,11.908625 c 0,0 -0.140783,-1.309602 1.707185,-1.262848 1.78915,0.04527 2.232498,1.290826 1.753955,3.367595 -0.266195,1.155222 -0.304018,1.052374 -0.912055,2.478925"
       id="path18" /><path
       style="fill:none;fill-opacity:1;stroke:#000000;stroke-width:0.499999;stroke-dasharray:none;stroke-opacity:1"
       d="M 38.338377,9.9127843 39.039959,9.2579731"
       id="path19" /></g></svg>
